<?xml version="1.0" encoding="utf-8"?>
<!-- Generator: Adobe Illustrator 24.0.0, SVG Export Plug-In . SVG Version: 6.00 Build 0)  -->
<svg version="1.1" id="Capa_1" xmlns="http://www.w3.org/2000/svg" xmlns:xlink="http://www.w3.org/1999/xlink" x="0px" y="0px"
	 viewBox="0 0 300 300" style="enable-background:new 0 0 300 300;" xml:space="preserve">
<style type="text/css">
	.st0{fill:#FFFFFF;}
	.st1{enable-background:new    ;}
</style>
<g>
	<g>
		<path class="st0" d="M83.7,103.4L37.2,57c2.6-2.5,4.2-5.9,4.2-9.8c0-7.5-6.1-13.6-13.6-13.6s-13.6,6.1-13.6,13.6
			c0,7.4,6,13.5,13.4,13.5v98.8L83.7,103.4z"/>
		<path class="st0" d="M159.7,50.4c5.5-1.7,9.6-6.9,9.6-13c0-7.5-6.1-13.6-13.6-13.6s-13.6,6.1-13.6,13.6c0,6.3,4.3,11.6,10.1,13.1
			l-119,119h100.5l72.6-72.6L159.7,50.4z M78.6,168.6l-12.2-12.2l12.2-12.1l12.2,12.1L78.6,168.6z M97.9,149.3l-12.2-12.2L97.8,125
			l12.2,12.2L97.9,149.3z M117.2,130L105,117.8l12.2-12.2l12.1,12.2L117.2,130z M136.9,110.2L124.8,98L137,85.8L149.1,98
			L136.9,110.2z M144.1,78.7l12.1-12.2l12.1,12.2l-12.1,12.2L144.1,78.7z"/>
		<path class="st0" d="M272.2,33.6c-7.5,0-13.6,6.1-13.6,13.6c0,3.7,1.5,7.1,3.9,9.6L149.7,169.6H272V60.8c0.1,0,0.1,0,0.2,0
			c7.5,0,13.6-6.1,13.6-13.6S279.7,33.6,272.2,33.6z M195.1,168.6L183,156.4l12.1-12.1l12.1,12.1L195.1,168.6z M214.4,149.3
			l-12.1-12.1l12.1-12.2l12.1,12.2L214.4,149.3z M233.7,130l-12.1-12.2l12.1-12.2l12.1,12.2L233.7,130z M253.5,110.2L241.4,98
			l12.1-12.2L265.7,98L253.5,110.2z"/>
	</g>
	<g class="st1">
		<path class="st0" d="M43.1,234.6H32.5V178h16.8l5.7,26.3c0.9,4.3,1.5,8.7,2,13.1h0.2c0.5-5.6,0.9-9.4,1.7-13.1l5.7-26.3h16.8v56.6
			H70.6v-17.8c0-11.2,0.2-22.5,0.9-33.7h-0.2L60,234.6h-6.4l-11.1-51.5h-0.4c0.7,11.2,0.9,22.5,0.9,33.7L43.1,234.6L43.1,234.6z"/>
		<path class="st0" d="M90.8,201.8c0.5-14.4,1.6-25.1,18.5-25.1s18,10.7,18.5,25.1v8.1c0,15.1-1.1,26.1-18.5,26.1
			s-18.5-11-18.5-26.1V201.8z M101.6,215.1c0,4.7,0.4,12.3,7.6,12.3c7.5,0,7.6-7.8,7.6-13.2v-14.5c0-4.5,0.2-14.6-7.6-14.6
			c-8.3,0-7.6,9.9-7.6,14.3V215.1z"/>
		<path class="st0" d="M161.4,178h11.3l-12.2,56.6h-14.1L133.8,178h11.3l6.6,36.3c0.6,3.2,1,6.4,1.3,9.7c0.2,1.5,0.5,3.1,0.5,4.7
			h0.2c0-1.6,0.3-3.2,0.5-4.7c0.3-3.2,0.7-6.5,1.3-9.7L161.4,178z"/>
		<path class="st0" d="M179.4,234.6V178H190v56.6H179.4z"/>
		<path class="st0" d="M200,234.6V178h29.7v8.3h-19.2v14.3h17.7v8.3h-17.7v17.4h19.2v8.3H200z"/>
		<path class="st0" d="M259.6,195.2c0.1-5.1-0.4-10-6.2-10c-3.5,0-5.8,1.4-5.8,5.3c0,4.3,2.7,6,6,8.1c3.5,2.2,9.9,6.4,12.8,9.3
			c3.6,3.5,4.8,6.9,4.8,11.8c0,10.7-7.1,16.3-17.4,16.3c-12.7,0-17.2-7.1-17.2-17.2v-4.2h10.6v3.3c-0.2,5.5,1.4,9.5,6.6,9.5
			c4.5,0,6.6-2.3,6.6-6.6c0-3.3-1.5-5.6-4.2-7.5c-5.5-4.3-12.4-7.4-16.7-13.1c-1.7-2.6-2.7-5.7-2.7-8.7c0-9.7,5.4-14.9,16.6-14.9
			c16.8,0,16.4,13,16.5,18.6L259.6,195.2L259.6,195.2z"/>
	</g>
	<rect x="27.8" y="241.1" class="st0" width="244" height="15"/>
	<rect x="74.8" y="261.1" class="st0" width="150" height="15"/>
</g>
</svg>
